# xmcd CD database file
#
# Track frame offsets:
#	150
#	15757
#	33400
#	57455
#	75380
#	93460
#	118180
#	134645
#	149472
#	160255
#	178027
#	190440
#	204542
#	219225
#	232372
#	247305
#	263030
#	277645
#	293207
#	306825
#	323582
#	340950
#
# Disc length: 4712 seconds
#
# Revision: 0
# Processed by: cddbd v1.5.1PL0 Copyright (c) Steve Scherf et al.
# Submitted via: CDex 1.51
#
DISCID=4b126616
DTITLE=Naldo's JAZZ FAMILY - Comin' back from New Orleans
DYEAR=1994
DGENRE=Jazz
TTITLE0=Comin' Back From N.O.
TTITLE1=Tell Me Your Dreams
TTITLE2=Panama Rag
TTITLE3=My Blue Haven
TTITLE4=Stevedoor Stomp
TTITLE5=Praise Of Nyboder
TTITLE6=Eh La Bas
TTITLE7=Ain't She Sweet
TTITLE8=Mississipi Queen
TTITLE9=Wonderful Word
TTITLE10=Tiger-Reg (Dreck)
TTITLE11=1919 Rag
TTITLE12=Hiawatha Rag
TTITLE13=Lead Me Savior
TTITLE14=Miss Bambillah Brown
TTITLE15=South
TTITLE16=Beale Street Blues
TTITLE17=Marie
TTITLE18=Marchin' Through Georgia
TTITLE19=Jungle Book
TTITLE20=Martinique
TTITLE21=Family's Farewell
EXTD=YEAR: 1994
EXTT0=
EXTT1=
EXTT2=
EXTT3=
EXTT4=
EXTT5=
EXTT6=
EXTT7=
EXTT8=
EXTT9=
EXTT10=
EXTT11=
EXTT12=
EXTT13=
EXTT14=
EXTT15=
EXTT16=
EXTT17=
EXTT18=
EXTT19=
EXTT20=
EXTT21=
PLAYORDER=
